<?xml version="1.0" encoding="UTF-8"?>
<svg id="Layer_2" data-name="Layer 2" xmlns="http://www.w3.org/2000/svg" viewBox="0 0 668.44 379.31">
  <defs>
    <style>
      .cls-1 {
        fill: #427a62;
      }
    </style>
  </defs>
  <g id="community">
    <g>
      <path class="cls-1" d="M320.61,285.86c-21.48,0-30.82-18.52-39.05-34.86-8.94-17.74-16.66-33.06-36.69-33.06-21.03,0-30.49,17.04-40.51,35.09-8.97,16.14-18.24,32.83-36.72,32.83h-3.55c-21.48,0-30.82-18.52-39.05-34.86-8.94-17.74-16.66-33.06-36.69-33.06-21.03,0-30.49,17.04-40.52,35.09-8.97,16.14-18.24,32.83-36.72,32.83-3.94,0-7.14-3.2-7.14-7.14s3.2-7.14,7.14-7.14c9.4,0,15.43-9.63,24.24-25.49,10.5-18.9,23.57-42.43,53-42.43s40.25,22.68,49.44,40.91c8.44,16.75,14.23,27.01,26.3,27.01h3.55c9.4,0,15.43-9.63,24.24-25.49,10.5-18.9,23.57-42.43,53-42.43s40.25,22.68,49.44,40.91c8.44,16.75,14.23,27.01,26.3,27.01,3.94,0,7.14,3.2,7.14,7.14s-3.2,7.14-7.14,7.14Z"/>
      <path class="cls-1" d="M196.36,379.31c-6.87,0-13.83-.03-20.83-.11-39.54-.42-72.45-2.06-97.81-4.86-21.35-2.36-51.05-6.76-62.52-17.68-4.57-4.36-5.54-8.91-5.54-11.96s.96-7.59,5.51-11.97c11.45-11.01,41.14-15.69,62.48-18.26,25.36-3.05,58.27-5,97.8-5.8,67.13-1.36,131.15,1.1,131.79,1.13,3.94,.15,7.01,3.47,6.86,7.41-.15,3.94-3.5,7-7.41,6.86-.64-.02-64.29-2.47-131-1.12-39.85,.81-134.3,4.38-150.62,20.07-.7,.67-1.13,1.31-1.13,1.68s.42,.97,1.1,1.62c3.47,3.31,15.14,9.51,54.24,13.83,24.89,2.75,57.32,4.36,96.39,4.78,66.72,.71,130.32-2.34,130.95-2.37,3.93-.17,7.29,2.85,7.48,6.78,.19,3.94-2.84,7.29-6.78,7.48-.57,.03-52.01,2.5-110.97,2.5Z"/>
      <path class="cls-1" d="M84.65,285.86c-3.94,0-7.14-3.2-7.14-7.14v-29.16c0-3.94,3.2-7.14,7.14-7.14s7.14,3.2,7.14,7.14v29.16c0,3.94-3.2,7.14-7.14,7.14Z"/>
      <path class="cls-1" d="M244.12,285.86c-3.94,0-7.14-3.2-7.14-7.14v-29.16c0-3.94,3.2-7.14,7.14-7.14s7.14,3.2,7.14,7.14v29.16c0,3.94-3.2,7.14-7.14,7.14Z"/>
      <path class="cls-1" d="M316.65,82.2c-21.48,0-30.82-18.52-39.05-34.86-8.94-17.74-16.66-33.06-36.69-33.06-21.03,0-30.49,17.04-40.51,35.09-8.97,16.14-18.24,32.83-36.72,32.83h-3.55c-21.48,0-30.82-18.52-39.05-34.86-8.94-17.74-16.66-33.06-36.69-33.06-21.03,0-30.49,17.04-40.52,35.09-8.97,16.14-18.24,32.83-36.72,32.83-3.94,0-7.14-3.2-7.14-7.14s3.2-7.14,7.14-7.14c9.4,0,15.43-9.63,24.24-25.49C41.88,23.53,54.95,0,84.38,0s40.25,22.68,49.44,40.91c8.44,16.75,14.23,27.01,26.3,27.01h3.55c9.4,0,15.43-9.63,24.24-25.49C198.41,23.53,211.48,0,240.91,0s40.25,22.68,49.44,40.91c8.44,16.75,14.23,27.01,26.3,27.01,3.94,0,7.14,3.2,7.14,7.14s-3.2,7.14-7.14,7.14Z"/>
      <path class="cls-1" d="M192.4,175.64c-6.87,0-13.83-.03-20.83-.11-39.54-.42-72.45-2.06-97.81-4.86-21.35-2.36-51.05-6.76-62.52-17.68-4.57-4.36-5.54-8.91-5.54-11.96s.96-7.59,5.51-11.97c11.45-11.01,41.14-15.69,62.48-18.26,25.36-3.05,58.27-5,97.8-5.8,67.13-1.36,131.15,1.1,131.79,1.13,3.94,.15,7.01,3.47,6.86,7.41-.15,3.94-3.5,7-7.41,6.86-.64-.02-64.29-2.47-131-1.12-39.85,.81-134.3,4.38-150.62,20.07-.7,.67-1.13,1.31-1.13,1.68s.42,.97,1.1,1.62c3.47,3.31,15.14,9.51,54.24,13.83,24.89,2.75,57.32,4.36,96.39,4.78,66.72,.71,130.32-2.34,130.95-2.37,3.93-.17,7.29,2.85,7.48,6.78,.19,3.94-2.84,7.29-6.78,7.48-.57,.03-52.01,2.5-110.97,2.5Z"/>
      <path class="cls-1" d="M80.69,82.2c-3.94,0-7.14-3.2-7.14-7.14v-29.16c0-3.94,3.2-7.14,7.14-7.14s7.14,3.2,7.14,7.14v29.16c0,3.94-3.2,7.14-7.14,7.14Z"/>
      <path class="cls-1" d="M240.16,82.2c-3.94,0-7.14-3.2-7.14-7.14v-29.16c0-3.94,3.2-7.14,7.14-7.14s7.14,3.2,7.14,7.14v29.16c0,3.94-3.2,7.14-7.14,7.14Z"/>
      <path class="cls-1" d="M659.27,85.89c-21.48,0-30.82-18.52-39.05-34.86-8.94-17.74-16.66-33.06-36.69-33.06-21.03,0-30.49,17.04-40.51,35.09-8.97,16.14-18.24,32.83-36.72,32.83h-3.55c-21.48,0-30.82-18.52-39.05-34.86-8.94-17.74-16.66-33.06-36.69-33.06-21.03,0-30.49,17.04-40.52,35.09-8.97,16.14-18.24,32.83-36.72,32.83-3.94,0-7.14-3.2-7.14-7.14s3.2-7.14,7.14-7.14c9.4,0,15.43-9.63,24.24-25.49,10.5-18.9,23.57-42.43,53-42.43s40.25,22.68,49.44,40.91c8.44,16.75,14.23,27.01,26.3,27.01h3.55c9.4,0,15.43-9.63,24.24-25.49,10.5-18.9,23.57-42.43,53-42.43s40.25,22.68,49.44,40.91c8.44,16.75,14.23,27.01,26.3,27.01,3.94,0,7.14,3.2,7.14,7.14s-3.2,7.14-7.14,7.14Z"/>
      <path class="cls-1" d="M535.02,179.34c-6.87,0-13.83-.03-20.83-.11-39.54-.42-72.45-2.06-97.81-4.86-21.35-2.36-51.05-6.76-62.52-17.68-4.57-4.36-5.54-8.91-5.54-11.96s.96-7.59,5.51-11.97c11.45-11.01,41.14-15.69,62.48-18.26,25.36-3.05,58.27-5,97.8-5.8,67.13-1.36,131.15,1.1,131.79,1.13,3.94,.15,7.01,3.47,6.86,7.41-.15,3.94-3.5,7-7.41,6.86-.64-.02-64.29-2.47-131-1.12-39.85,.81-134.3,4.38-150.62,20.07-.7,.67-1.13,1.31-1.13,1.68s.42,.97,1.1,1.62c3.47,3.31,15.14,9.51,54.24,13.83,24.89,2.75,57.32,4.36,96.39,4.78,66.72,.71,130.32-2.34,130.95-2.37,3.93-.17,7.29,2.85,7.48,6.78,.19,3.94-2.84,7.29-6.78,7.48-.57,.03-52.01,2.5-110.97,2.5Z"/>
      <path class="cls-1" d="M423.32,85.89c-3.94,0-7.14-3.2-7.14-7.14v-29.16c0-3.94,3.2-7.14,7.14-7.14s7.14,3.2,7.14,7.14v29.16c0,3.94-3.2,7.14-7.14,7.14Z"/>
      <path class="cls-1" d="M582.79,85.89c-3.94,0-7.14-3.2-7.14-7.14v-29.16c0-3.94,3.2-7.14,7.14-7.14s7.14,3.2,7.14,7.14v29.16c0,3.94-3.2,7.14-7.14,7.14Z"/>
      <path class="cls-1" d="M661.3,285.86c-21.48,0-30.82-18.52-39.05-34.86-8.94-17.74-16.66-33.06-36.69-33.06-21.03,0-30.49,17.04-40.51,35.09-8.97,16.14-18.24,32.83-36.72,32.83h-3.55c-21.48,0-30.82-18.52-39.05-34.86-8.94-17.74-16.66-33.06-36.69-33.06-21.03,0-30.49,17.04-40.52,35.09-8.97,16.14-18.24,32.83-36.72,32.83-3.94,0-7.14-3.2-7.14-7.14s3.2-7.14,7.14-7.14c9.4,0,15.43-9.63,24.24-25.49,10.5-18.9,23.57-42.43,53-42.43s40.25,22.68,49.44,40.91c8.44,16.75,14.23,27.01,26.3,27.01h3.55c9.4,0,15.43-9.63,24.24-25.49,10.5-18.9,23.57-42.43,53-42.43s40.25,22.68,49.44,40.91c8.44,16.75,14.23,27.01,26.3,27.01,3.94,0,7.14,3.2,7.14,7.14s-3.2,7.14-7.14,7.14Z"/>
      <path class="cls-1" d="M537.05,379.31c-6.87,0-13.83-.03-20.83-.11-39.54-.42-72.45-2.06-97.81-4.86-21.35-2.36-51.05-6.76-62.52-17.68-4.57-4.36-5.54-8.91-5.54-11.96s.96-7.59,5.51-11.97c11.45-11.01,41.14-15.69,62.48-18.26,25.36-3.05,58.27-5,97.8-5.8,67.13-1.36,131.15,1.1,131.79,1.13,3.94,.15,7.01,3.47,6.86,7.41-.15,3.94-3.5,7-7.41,6.86-.64-.02-64.29-2.47-131-1.12-39.85,.81-134.3,4.38-150.62,20.07-.7,.67-1.13,1.31-1.13,1.68s.42,.97,1.1,1.62c3.47,3.31,15.14,9.51,54.24,13.83,24.89,2.75,57.32,4.36,96.39,4.78,66.72,.71,130.32-2.34,130.95-2.37,3.93-.17,7.29,2.85,7.48,6.78,.19,3.94-2.84,7.29-6.78,7.48-.57,.03-52.01,2.5-110.97,2.5Z"/>
      <path class="cls-1" d="M425.34,285.86c-3.94,0-7.14-3.2-7.14-7.14v-29.16c0-3.94,3.2-7.14,7.14-7.14s7.14,3.2,7.14,7.14v29.16c0,3.94-3.2,7.14-7.14,7.14Z"/>
      <path class="cls-1" d="M584.81,285.86c-3.94,0-7.14-3.2-7.14-7.14v-29.16c0-3.94,3.2-7.14,7.14-7.14s7.14,3.2,7.14,7.14v29.16c0,3.94-3.2,7.14-7.14,7.14Z"/>
    </g>
  </g>
</svg>