<?xml version="1.0" encoding="UTF-8"?>
<svg id="Layer_2" data-name="Layer 2" xmlns="http://www.w3.org/2000/svg" viewBox="0 0 656.47 504.16">
  <defs>
    <style>
      .cls-1 {
        fill: #427a62;
      }
    </style>
  </defs>
  <g id="curiosity">
    <g>
      <path class="cls-1" d="M641.99,314.71c-43.55,0-62.48-37.55-79.18-70.68-18.13-35.96-33.78-67.03-74.38-67.03-42.63,0-61.82,34.56-82.14,71.14-18.18,32.73-36.98,66.57-74.46,66.57h-7.21c-43.56,0-62.48-37.55-79.18-70.68-18.13-35.96-33.78-67.03-74.38-67.03-42.63,0-61.82,34.56-82.14,71.14-18.18,32.73-36.98,66.57-74.46,66.57-7.99,0-14.48-6.48-14.48-14.48s6.48-14.48,14.48-14.48c19.07,0,31.29-19.52,49.15-51.68,21.29-38.33,47.79-86.03,107.45-86.03s81.6,45.99,100.23,82.95c17.11,33.95,28.84,54.76,53.33,54.76h7.21c19.07,0,31.29-19.52,49.15-51.68,21.29-38.33,47.79-86.03,107.45-86.03s81.61,45.99,100.23,82.95c17.11,33.95,28.84,54.76,53.33,54.76,7.99,0,14.48,6.48,14.48,14.48s-6.48,14.48-14.48,14.48Z"/>
      <path class="cls-1" d="M390.08,504.16c-13.92,0-28.04-.07-42.23-.22-80.17-.85-146.88-4.17-198.3-9.86-43.28-4.79-103.51-13.71-126.76-35.85-9.28-8.83-11.22-18.06-11.22-24.24s1.94-15.38,11.18-24.26c23.22-22.33,83.42-31.82,126.68-37.02,51.42-6.18,118.13-10.13,198.29-11.76,136.1-2.76,265.91,2.23,267.2,2.28,7.99,.31,14.21,7.04,13.9,15.03-.31,7.99-7.1,14.19-15.03,13.9-1.29-.05-130.35-5.01-265.61-2.26-80.8,1.64-272.29,8.89-305.37,40.7-1.41,1.36-2.29,2.66-2.29,3.4s.86,1.96,2.24,3.28c7.05,6.71,30.7,19.28,109.97,28.04,50.47,5.58,116.22,8.84,195.43,9.69,135.27,1.45,264.21-4.75,265.5-4.81,7.97-.33,14.78,5.77,15.16,13.75,.39,7.99-5.77,14.77-13.75,15.16-1.16,.06-105.44,5.07-224.98,5.07Z"/>
      <path class="cls-1" d="M163.6,314.71c-7.99,0-14.48-6.48-14.48-14.48v-59.11c0-7.99,6.48-14.48,14.48-14.48s14.48,6.48,14.48,14.48v59.11c0,7.99-6.48,14.48-14.48,14.48Z"/>
      <path class="cls-1" d="M486.92,314.71c-7.99,0-14.48-6.48-14.48-14.48v-59.11c0-7.99,6.48-14.48,14.48-14.48s14.48,6.48,14.48,14.48v59.11c0,7.99-6.48,14.48-14.48,14.48Z"/>
      <path class="cls-1" d="M307.91,94.23c-.7-.7-1.05-1.56-1.05-2.58v-4.4c.81-5.36,2.65-10.14,5.51-14.35,2.86-4.21,6.79-8.99,11.81-14.35,3.73-4.08,6.53-7.43,8.4-10.04,1.86-2.61,2.86-5.26,2.97-7.94,.35-3.95-.85-7.11-3.59-9.47-2.74-2.36-6.04-3.54-9.89-3.54-9.1,0-14.7,4.78-16.8,14.35-.94,3.06-2.74,4.59-5.42,4.59h-21.35c-1.28,0-2.3-.48-3.06-1.44-.76-.96-1.14-2.2-1.14-3.73,.23-7.01,2.28-13.68,6.12-19.99,3.85-6.31,9.51-11.45,16.97-15.4,7.46-3.95,16.39-5.93,26.77-5.93s19.25,1.82,25.89,5.45c6.65,3.64,11.4,8.1,14.26,13.39,2.86,5.29,4.29,10.68,4.29,16.17,0,6.25-1.31,11.74-3.94,16.45-2.62,4.72-6.5,10.14-11.63,16.26-3.15,3.7-5.63,6.83-7.44,9.38-1.81,2.55-3.18,5.23-4.11,8.04-.35,1.15-.76,2.87-1.22,5.17-.94,1.79-1.75,3.06-2.45,3.83-.7,.76-1.69,1.15-2.97,1.15h-24.5c-.93,0-1.75-.35-2.45-1.05Zm-.35,40.27c-.82-.89-1.22-2.04-1.22-3.44v-21.81c0-1.4,.41-2.55,1.22-3.44,.81-.89,1.86-1.34,3.15-1.34h22.39c1.28,0,2.36,.45,3.24,1.34,.88,.89,1.31,2.04,1.31,3.44v21.81c0,1.41-.44,2.55-1.31,3.44-.88,.89-1.96,1.34-3.24,1.34h-22.39c-1.29,0-2.33-.45-3.15-1.34Z"/>
    </g>
  </g>
</svg>