<?xml version="1.0" encoding="UTF-8"?>
<svg id="Layer_2" data-name="Layer 2" xmlns="http://www.w3.org/2000/svg" viewBox="0 0 1090.42 356.11">
  <defs>
    <style>
      .cls-1 {
        fill: #427a62;
      }
    </style>
  </defs>
  <g id="long-term">
    <g>
      <path class="cls-1" d="M1066.37,166.66c-72.35,0-103.78-37.55-131.52-70.68-30.11-35.96-56.11-67.03-123.55-67.03-70.81,0-102.69,34.56-136.44,71.14-30.2,32.73-61.42,66.57-123.67,66.57h-11.97c-72.35,0-103.78-37.55-131.52-70.68-30.11-35.96-56.11-67.03-123.54-67.03-70.81,0-102.69,34.56-136.44,71.14-30.19,32.73-61.42,66.57-123.67,66.57-13.28,0-24.04-6.48-24.04-14.48s10.77-14.48,24.04-14.48c31.67,0,51.97-19.52,81.63-51.68C141.04,47.7,185.05,0,284.16,0s135.55,45.99,166.49,82.95c28.42,33.95,47.91,54.76,88.58,54.76h11.97c31.67,0,51.97-19.52,81.63-51.68C668.19,47.7,712.2,0,811.31,0s135.55,45.99,166.49,82.95c28.43,33.95,47.91,54.76,88.58,54.76,13.28,0,24.04,6.48,24.04,14.48s-10.77,14.48-24.04,14.48Z"/>
      <path class="cls-1" d="M647.94,356.11c-23.12,0-46.57-.07-70.15-.22-133.16-.85-243.98-4.17-329.38-9.86-71.89-4.79-171.93-13.71-210.55-35.85-15.41-8.83-18.64-18.06-18.64-24.24s3.22-15.38,18.57-24.26c38.57-22.33,138.56-31.82,210.42-37.02,85.4-6.18,196.22-10.13,329.37-11.76,226.07-2.76,441.68,2.23,443.83,2.28,13.27,.31,23.61,7.04,23.09,15.03-.52,7.99-11.8,14.19-24.97,13.9-2.14-.05-216.51-5.01-441.18-2.26-134.21,1.64-452.29,8.89-507.23,40.7-2.35,1.36-3.81,2.66-3.81,3.4s1.43,1.96,3.72,3.28c11.7,6.71,50.99,19.28,182.67,28.04,83.83,5.58,193.04,8.84,324.61,9.69,224.68,1.45,438.86-4.75,441-4.81,13.23-.33,24.54,5.77,25.19,13.75,.65,7.99-9.58,14.77-22.85,15.16-1.93,.06-175.14,5.07-373.7,5.07Z"/>
      <path class="cls-1" d="M271.74,166.66c-13.28,0-24.04-6.48-24.04-14.48v-59.11c0-7.99,10.77-14.48,24.04-14.48s24.04,6.48,24.04,14.48v59.11c0,7.99-10.77,14.48-24.04,14.48Z"/>
      <path class="cls-1" d="M808.79,166.66c-13.28,0-24.04-6.48-24.04-14.48v-59.11c0-7.99,10.77-14.48,24.04-14.48s24.04,6.48,24.04,14.48v59.11c0,7.99-10.77,14.48-24.04,14.48Z"/>
    </g>
  </g>
</svg>