<?xml version="1.0" encoding="UTF-8"?>
<svg id="Layer_2" data-name="Layer 2" xmlns="http://www.w3.org/2000/svg" viewBox="0 0 409.97 356.11">
  <defs>
    <style>
      .cls-1 {
        fill: #427a62;
      }
    </style>
  </defs>
  <g id="short-term">
    <g>
      <path class="cls-1" d="M400.93,166.66c-27.2,0-39.02-37.55-49.45-70.68-11.32-35.96-21.1-67.03-46.45-67.03-26.62,0-38.61,34.56-51.3,71.14-11.35,32.73-23.09,66.57-46.5,66.57h-4.5c-27.2,0-39.02-37.55-49.45-70.68-11.32-35.96-21.1-67.03-46.45-67.03-26.62,0-38.61,34.56-51.3,71.14-11.35,32.73-23.09,66.57-46.5,66.57-4.99,0-9.04-6.48-9.04-14.48s4.05-14.48,9.04-14.48c11.91,0,19.54-19.52,30.69-51.68C53.03,47.7,69.58,0,106.84,0s50.96,45.99,62.59,82.95c10.69,33.95,18.01,54.76,33.3,54.76h4.5c11.91,0,19.54-19.52,30.69-51.68C251.22,47.7,267.77,0,305.03,0s50.96,45.99,62.59,82.95c10.69,33.95,18.01,54.76,33.3,54.76,4.99,0,9.04,6.48,9.04,14.48s-4.05,14.48-9.04,14.48Z"/>
      <path class="cls-1" d="M243.61,356.11c-8.69,0-17.51-.07-26.38-.22-50.06-.85-91.73-4.17-123.84-9.86-27.03-4.79-64.64-13.71-79.16-35.85-5.79-8.83-7.01-18.06-7.01-24.24s1.21-15.38,6.98-24.26c14.5-22.33,52.1-31.82,79.11-37.02,32.11-6.18,73.77-10.13,123.84-11.76,85-2.76,166.06,2.23,166.87,2.28,4.99,.31,8.88,7.04,8.68,15.03-.19,7.99-4.44,14.19-9.39,13.9-.81-.05-81.4-5.01-165.87-2.26-50.46,1.64-170.05,8.89-190.71,40.7-.88,1.36-1.43,2.66-1.43,3.4s.54,1.96,1.4,3.28c4.4,6.71,19.17,19.28,68.68,28.04,31.52,5.58,72.58,8.84,122.05,9.69,84.48,1.45,165-4.75,165.8-4.81,4.98-.33,9.23,5.77,9.47,13.75,.24,7.99-3.6,14.77-8.59,15.16-.72,.06-65.85,5.07-140.5,5.07Z"/>
      <path class="cls-1" d="M102.17,166.66c-4.99,0-9.04-6.48-9.04-14.48v-59.11c0-7.99,4.05-14.48,9.04-14.48s9.04,6.48,9.04,14.48v59.11c0,7.99-4.05,14.48-9.04,14.48Z"/>
      <path class="cls-1" d="M304.08,166.66c-4.99,0-9.04-6.48-9.04-14.48v-59.11c0-7.99,4.05-14.48,9.04-14.48s9.04,6.48,9.04,14.48v59.11c0,7.99-4.05,14.48-9.04,14.48Z"/>
    </g>
  </g>
</svg>